<svg width="24" height="24" viewBox="0 0 24 24" fill="none" xmlns="http://www.w3.org/2000/svg">
<path d="M19.2718 11.0909H4.72639V16.7274C4.72639 17.506 4.7267 18.0353 4.76012 18.4444C4.79269 18.843 4.85192 19.0471 4.92436 19.1893L4.9945 19.3145C5.16917 19.5992 5.41962 19.8313 5.71893 19.9838L5.83967 20.0353C5.97564 20.084 6.16505 20.1237 6.46378 20.1481C6.8729 20.1815 7.40222 20.1818 8.18075 20.1818H15.8175C16.596 20.1818 17.1253 20.1815 17.5344 20.1481C17.933 20.1155 18.1371 20.0563 18.2793 19.9838L18.4045 19.9137C18.6892 19.739 18.9213 19.4886 19.0739 19.1893L19.1254 19.0685C19.174 18.9326 19.2137 18.7432 19.2381 18.4444C19.2715 18.0353 19.2718 17.506 19.2718 16.7274V11.0909ZM14.7264 6.54545V5.63636H9.27184V6.54545C9.27184 7.04753 8.86483 7.45455 8.36275 7.45455C7.86067 7.45455 7.45366 7.04753 7.45366 6.54545V5.63903C7.0487 5.64187 6.73065 5.6483 6.46378 5.6701C6.16505 5.69451 5.97564 5.7342 5.83967 5.78285L5.71893 5.83434C5.41962 5.98686 5.16917 6.21895 4.9945 6.50373L4.92436 6.62891C4.85192 6.77109 4.79269 6.9752 4.76012 7.37376C4.7267 7.78288 4.72639 8.31219 4.72639 9.09073V9.27273H19.2718V9.09073C19.2718 8.31219 19.2715 7.78288 19.2381 7.37376C19.2137 7.07503 19.174 6.88562 19.1254 6.74964L19.0739 6.62891C18.9213 6.3296 18.6892 6.07915 18.4045 5.90447L18.2793 5.83434C18.1371 5.76189 17.933 5.70266 17.5344 5.6701C17.2676 5.6483 16.9495 5.64187 16.5446 5.63903V6.54545C16.5446 7.04753 16.1376 7.45455 15.6355 7.45455C15.1334 7.45455 14.7264 7.04753 14.7264 6.54545ZM21.09 16.7274C21.09 17.4761 21.091 18.0923 21.0501 18.5927C21.0135 19.0398 20.9405 19.4555 20.7722 19.848L20.6941 20.0149C20.389 20.6135 19.9248 21.1144 19.3553 21.4638L19.1049 21.604C18.6637 21.8288 18.1937 21.9183 17.6827 21.96C17.1824 22.0009 16.5661 22 15.8175 22H8.18075C7.43213 22 6.81587 22.0009 6.31552 21.96C5.86838 21.9235 5.45268 21.8505 5.06019 21.6822L4.89329 21.604C4.29468 21.299 3.79378 20.8348 3.44443 20.2653L3.30416 20.0149C3.07936 19.5737 2.98991 19.1036 2.94816 18.5927C2.90728 18.0923 2.9082 17.4761 2.9082 16.7274V9.09073C2.9082 8.3421 2.90728 7.72584 2.94816 7.2255C2.98991 6.71454 3.07936 6.24445 3.30416 5.80327L3.44443 5.55291C3.79378 4.98336 4.29468 4.51918 4.89329 4.21413L5.06019 4.13601C5.45268 3.96765 5.86838 3.89467 6.31552 3.85813C6.64353 3.83133 7.02142 3.82382 7.45366 3.82085V2.90909C7.45366 2.40701 7.86067 2 8.36275 2C8.86483 2 9.27184 2.40701 9.27184 2.90909V3.81818H14.7264V2.90909C14.7264 2.40701 15.1334 2 15.6355 2C16.1376 2 16.5446 2.40701 16.5446 2.90909V3.82085C16.9768 3.82382 17.3547 3.83133 17.6827 3.85813C18.1937 3.89989 18.6637 3.98934 19.1049 4.21413L19.3553 4.3544C19.9248 4.70376 20.389 5.20466 20.6941 5.80327L20.7722 5.97017C20.9405 6.36266 21.0135 6.77836 21.0501 7.2255C21.091 7.72584 21.09 8.3421 21.09 9.09073V16.7274Z" fill="url(#paint0_linear_7_24408)"/>
<defs>
<linearGradient id="paint0_linear_7_24408" x1="16.5446" y1="2" x2="6.35469" y2="21.2396" gradientUnits="userSpaceOnUse">
<stop stop-color="#00E1E1"/>
<stop offset="1" stop-color="#24BABB"/>
</linearGradient>
</defs>
</svg>
