<svg width="11" height="11" viewBox="0 0 11 11" fill="none" xmlns="http://www.w3.org/2000/svg">
<path fill-rule="evenodd" clip-rule="evenodd" d="M4.39587 1.46614C4.28425 1.56126 4.22844 1.60882 4.16883 1.64877C4.0322 1.74035 3.87876 1.80391 3.71739 1.83576C3.647 1.84966 3.57391 1.85549 3.42772 1.86716C3.06042 1.89647 2.87677 1.91113 2.72355 1.96525C2.36917 2.09042 2.09042 2.36917 1.96525 2.72355C1.91113 2.87677 1.89647 3.06042 1.86716 3.42772C1.85549 3.57391 1.84966 3.647 1.83576 3.71739C1.80391 3.87876 1.74035 4.0322 1.64877 4.16883C1.60882 4.22844 1.56126 4.28425 1.46614 4.39587C1.22715 4.67631 1.10765 4.81654 1.03757 4.96315C0.875497 5.30224 0.875497 5.69645 1.03757 6.03555C1.10765 6.18216 1.22714 6.32238 1.46614 6.60283C1.56125 6.71444 1.60882 6.77026 1.64877 6.82986C1.74035 6.96649 1.80391 7.11994 1.83576 7.2813C1.84966 7.3517 1.85549 7.42479 1.86716 7.57098C1.89647 7.93828 1.91113 8.12193 1.96525 8.27515C2.09042 8.62953 2.36917 8.90828 2.72355 9.03345C2.87677 9.08757 3.06042 9.10223 3.42772 9.13154C3.57391 9.1432 3.647 9.14904 3.71739 9.16293C3.87876 9.19479 4.0322 9.25835 4.16883 9.34993C4.22844 9.38988 4.28425 9.43744 4.39587 9.53256C4.67631 9.77155 4.81654 9.89105 4.96315 9.96112C5.30224 10.1232 5.69645 10.1232 6.03555 9.96112C6.18216 9.89105 6.32238 9.77155 6.60283 9.53256C6.71445 9.43744 6.77026 9.38988 6.82986 9.34993C6.96649 9.25835 7.11994 9.19479 7.2813 9.16293C7.3517 9.14904 7.42479 9.1432 7.57098 9.13154C7.93828 9.10223 8.12193 9.08757 8.27515 9.03345C8.62953 8.90828 8.90828 8.62953 9.03345 8.27515C9.08757 8.12193 9.10223 7.93828 9.13154 7.57098C9.1432 7.42479 9.14904 7.3517 9.16293 7.2813C9.19479 7.11994 9.25835 6.96649 9.34993 6.82986C9.38988 6.77026 9.43744 6.71445 9.53256 6.60283C9.77155 6.32238 9.89105 6.18216 9.96112 6.03555C10.1232 5.69645 10.1232 5.30224 9.96112 4.96315C9.89105 4.81654 9.77155 4.67631 9.53256 4.39587C9.43744 4.28425 9.38988 4.22844 9.34993 4.16883C9.25835 4.0322 9.19479 3.87876 9.16293 3.71739C9.14904 3.647 9.1432 3.57391 9.13154 3.42772C9.10223 3.06042 9.08757 2.87677 9.03345 2.72355C8.90828 2.36917 8.62953 2.09042 8.27515 1.96525C8.12193 1.91113 7.93828 1.89647 7.57098 1.86716C7.42479 1.85549 7.3517 1.84966 7.2813 1.83576C7.11994 1.80391 6.96649 1.74035 6.82986 1.64877C6.77026 1.60882 6.71445 1.56126 6.60283 1.46614C6.32238 1.22714 6.18216 1.10765 6.03555 1.03757C5.69645 0.875497 5.30224 0.875497 4.96315 1.03757C4.81654 1.10765 4.67631 1.22715 4.39587 1.46614ZM7.50386 4.51995C7.64954 4.37428 7.64954 4.1381 7.50386 3.99242C7.35819 3.84675 7.12201 3.84675 6.97633 3.99242L4.7533 6.21545L4.02235 5.4845C3.87668 5.33883 3.6405 5.33883 3.49482 5.4845C3.34915 5.63017 3.34915 5.86636 3.49482 6.01203L4.48954 7.00675C4.63521 7.15242 4.8714 7.15242 5.01707 7.00675L7.50386 4.51995Z" fill="#297AD9"/>
</svg>
