<svg width="24" height="24" viewBox="0 0 24 24" fill="none" xmlns="http://www.w3.org/2000/svg">
<path d="M19.4422 12.0782L18.601 12.619V12.619L19.4422 12.0782ZM20.5496 13.8012L21.3909 13.2604L20.5496 13.8012ZM3.45036 13.8012L2.60915 13.2604H2.60915L3.45036 13.8012ZM4.5578 12.0782L5.39901 12.619L4.5578 12.0782ZM19.0296 18.0116L18.7575 17.0493H18.7575L19.0296 18.0116ZM4.97036 18.0116L5.24255 17.0493H5.24255L4.97036 18.0116ZM8.35179 20.2418L8.48606 19.2509C8.0824 19.1962 7.68591 19.3918 7.4837 19.7454C7.28149 20.0991 7.31398 20.54 7.56584 20.8601L8.35179 20.2418ZM15.6482 20.2418L16.4342 20.8601C16.686 20.54 16.7185 20.0991 16.5163 19.7454C16.3141 19.3918 15.9176 19.1962 15.514 19.2509L15.6482 20.2418ZM18.7491 9H17.7491V9.7041H18.7491H19.7491V9H18.7491ZM19.4422 12.0782L18.601 12.619L19.7084 14.3419L20.5496 13.8012L21.3909 13.2604L20.2834 11.5375L19.4422 12.0782ZM3.45036 13.8012L4.29157 14.3419L5.39901 12.619L4.5578 12.0782L3.71659 11.5375L2.60915 13.2604L3.45036 13.8012ZM5.25087 9.7041H6.25087V9H5.25087H4.25087V9.7041H5.25087ZM19.0296 18.0116L18.7575 17.0493C14.333 18.3008 9.66696 18.3008 5.24255 17.0493L4.97036 18.0116L4.69818 18.9738C9.47852 20.326 14.5215 20.326 19.3018 18.9738L19.0296 18.0116ZM4.5578 12.0782L5.39901 12.619C5.9558 11.7527 6.25087 10.7386 6.25087 9.7041H5.25087H4.25087C4.25087 10.3596 4.06363 10.9976 3.71659 11.5375L4.5578 12.0782ZM18.7491 9.7041H17.7491C17.7491 10.7386 18.0442 11.7527 18.601 12.619L19.4422 12.0782L20.2834 11.5375C19.9364 10.9976 19.7491 10.3596 19.7491 9.7041H18.7491ZM3.45036 13.8012L2.60915 13.2604C1.25333 15.3698 2.25945 18.284 4.69818 18.9738L4.97036 18.0116L5.24255 17.0493C4.16264 16.7438 3.62432 15.3799 4.29157 14.3419L3.45036 13.8012ZM20.5496 13.8012L19.7084 14.3419C20.3757 15.3799 19.8374 16.7438 18.7575 17.0493L19.0296 18.0116L19.3018 18.9738C21.7405 18.284 22.7467 15.3698 21.3909 13.2604L20.5496 13.8012ZM12 2V3C15.1411 3 17.7491 5.65158 17.7491 9H18.7491H19.7491C19.7491 4.61643 16.3138 1 12 1V2ZM12 2V1C7.68619 1 4.25087 4.61643 4.25087 9H5.25087H6.25087C6.25087 5.65158 8.85893 3 12 3V2ZM8.35179 20.2418L7.56584 20.8601C8.5915 22.1639 10.1995 23 12 23V22V21C10.8289 21 9.79426 20.4581 9.13774 19.6236L8.35179 20.2418ZM8.35179 20.2418L8.21752 21.2328C10.7284 21.573 13.2716 21.573 15.7825 21.2328L15.6482 20.2418L15.514 19.2509C13.1813 19.567 10.8187 19.567 8.48606 19.2509L8.35179 20.2418ZM12 22V23C13.8005 23 15.4085 22.1639 16.4342 20.8601L15.6482 20.2418L14.8623 19.6236C14.2057 20.4581 13.1711 21 12 21V22Z" fill="white"/>
</svg>
