<svg width="16" height="16" viewBox="0 0 16 16" fill="none" xmlns="http://www.w3.org/2000/svg">
<path d="M8.63617 0.53071C8.50117 0.65071 7.45117 2.73446 7.45117 2.73446L6.66992 5.88571L9.70992 5.60696C9.70992 5.60696 12.2387 0.90446 12.2899 0.79571C12.3812 0.59821 12.4299 0.51696 12.0812 0.51696C11.7324 0.51571 8.76242 0.41821 8.63617 0.53071Z" fill="#176CC7"/>
<path d="M10.2098 5.41135C10.0585 5.3301 5.60351 5.2601 5.49851 5.41135C5.40351 5.54885 5.41726 6.1776 5.46351 6.25885C5.50976 6.3401 7.00726 7.03635 7.00726 7.03635L7.00601 7.2901C7.00601 7.2901 7.08851 7.48885 7.92351 7.48885C8.75851 7.48885 8.84476 7.3201 8.84476 7.3201L8.85226 7.06385C8.85226 7.06385 10.1635 6.40885 10.2323 6.35135C10.3023 6.2926 10.361 5.4926 10.2098 5.41135ZM8.83726 6.4526C8.83726 6.4526 8.83351 6.2776 8.74726 6.23385C8.66101 6.1901 7.27226 6.1976 7.15476 6.20385C7.03726 6.2101 7.03726 6.4201 7.03726 6.4201L6.08726 5.9576V5.8651L9.62476 5.8901L9.63101 5.9951L8.83726 6.4526Z" fill="#FCC417"/>
<path d="M7.40766 6.39648C7.29016 6.39648 7.22266 6.51898 7.22266 6.73023C7.22266 6.92773 7.29016 7.09398 7.43891 7.08148C7.56141 7.07148 7.60391 6.88398 7.59266 6.71773C7.58141 6.52023 7.55641 6.39648 7.40766 6.39648Z" fill="#FDFFFF"/>
<path d="M3.62305 11.3393C3.62305 14.3342 6.33055 15.668 8.13055 15.6042C10.1155 15.533 12.493 13.9855 12.3493 11.128C12.213 8.4205 9.93555 7.13675 7.96305 7.1505C5.67055 7.16675 3.62305 8.723 3.62305 11.3393Z" fill="#FCC417"/>
<path d="M8.0663 15.0833C8.03505 15.0833 8.00255 15.0833 7.9713 15.082C7.0338 15.0508 6.10755 14.6558 5.43005 13.9995C4.70505 13.297 4.30755 12.347 4.31255 11.3258C4.3238 8.83203 6.5038 7.67578 7.98255 7.67578H7.99505C9.9988 7.68453 11.6438 9.24203 11.69 11.3533C11.71 12.2933 11.325 13.2795 10.57 14.022C9.86505 14.7133 8.93005 15.0833 8.0663 15.0833ZM7.98005 8.09078C6.6538 8.09078 4.69255 9.17578 4.68755 11.3258C4.6838 12.9333 5.9288 14.5858 8.00255 14.6558C8.79255 14.6808 9.6063 14.3783 10.2638 13.732C10.9463 13.0608 11.33 12.1958 11.3163 11.3583C11.2863 9.54203 9.8013 8.09703 7.9988 8.08953C7.9938 8.08953 7.9838 8.09078 7.98005 8.09078Z" fill="#FA912C"/>
<path d="M7.22734 7.57643C7.14109 7.45768 6.16359 7.48018 5.23984 8.38268C4.34859 9.25393 4.25234 10.0752 4.42359 10.1227C4.61734 10.1764 4.85359 9.30643 5.66984 8.57518C6.41984 7.90518 7.39984 7.81268 7.22734 7.57643ZM11.0086 10.8102C10.7073 10.8527 11.0198 11.7552 10.3211 12.7652C9.71484 13.6414 9.02734 13.9589 9.10734 14.1514C9.21484 14.4089 10.3161 13.7677 10.8261 12.7227C11.2886 11.7764 11.2336 10.7777 11.0086 10.8102Z" fill="#FEFFFA"/>
<path d="M6.98222 9.62682C6.91722 9.72307 6.97597 10.5668 7.01472 10.6043C7.08972 10.6793 7.65972 10.4106 7.65972 10.4106L7.63847 12.6668C7.63847 12.6668 7.21972 12.6618 7.17597 12.6781C7.08972 12.7106 7.10097 13.5806 7.16472 13.6231C7.22847 13.6656 8.93722 13.6881 9.00222 13.6018C9.06722 13.5156 9.05097 12.7543 9.02097 12.7193C8.96722 12.6543 8.55847 12.6806 8.55847 12.6806C8.55847 12.6806 8.59347 9.35807 8.58222 9.25182C8.57097 9.14557 8.45347 9.07932 8.31347 9.11182C8.17347 9.14432 7.02347 9.56432 6.98222 9.62682Z" fill="#FA912C"/>
<path d="M3.18902 0.464075C3.11027 0.536575 6.12152 5.89908 6.12152 5.89908C6.12152 5.89908 6.62652 5.96408 7.75402 5.97408C8.88152 5.98408 9.44027 5.90908 9.44027 5.90908C9.44027 5.90908 7.09902 0.517825 6.95902 0.464075C6.89027 0.436575 5.96277 0.426575 5.05652 0.416575C4.14902 0.405325 3.26402 0.394075 3.18902 0.464075Z" fill="#2E9DF4"/>
</svg>
