<svg width="20" height="20" viewBox="0 0 20 20" fill="none" xmlns="http://www.w3.org/2000/svg">
<path fill-rule="evenodd" clip-rule="evenodd" d="M4.37435 12.0827C4.37435 11.7375 4.65417 11.4577 4.99935 11.4577H11.666C12.0112 11.4577 12.291 11.7375 12.291 12.0827C12.291 12.4279 12.0112 12.7077 11.666 12.7077H4.99935C4.65417 12.7077 4.37435 12.4279 4.37435 12.0827Z" fill="url(#paint0_linear_7_34851)"/>
<path fill-rule="evenodd" clip-rule="evenodd" d="M4.37435 14.9994C4.37435 14.6542 4.65417 14.3744 4.99935 14.3744H9.58268C9.92786 14.3744 10.2077 14.6542 10.2077 14.9994C10.2077 15.3446 9.92786 15.6244 9.58268 15.6244H4.99935C4.65417 15.6244 4.37435 15.3446 4.37435 14.9994Z" fill="url(#paint1_linear_7_34851)"/>
<path fill-rule="evenodd" clip-rule="evenodd" d="M10.2077 2.3612C9.82401 2.296 9.30099 2.29106 8.35751 2.29106C6.76028 2.29106 5.62497 2.29237 4.76423 2.40757C3.92098 2.52043 3.43646 2.73212 3.08427 3.08431C2.73159 3.43699 2.5202 3.92002 2.40748 4.75843C2.29234 5.61482 2.29102 6.74371 2.29102 8.33272V11.6661C2.29102 13.2551 2.29234 14.384 2.40748 15.2404C2.5202 16.0788 2.73159 16.5618 3.08427 16.9145C3.43694 17.2671 3.91998 17.4785 4.75839 17.5913C5.61478 17.7064 6.74367 17.7077 8.33268 17.7077H11.666C13.255 17.7077 14.3839 17.7064 15.2403 17.5913C16.0787 17.4785 16.5618 17.2671 16.9144 16.9145C17.2671 16.5618 17.4785 16.0788 17.5912 15.2404C17.7064 14.384 17.7077 13.2551 17.7077 11.6661V11.3018C17.7077 10.0218 17.6987 9.41501 17.5628 8.95772H14.9546C14.0106 8.95775 13.2391 8.95776 12.6301 8.87588C11.9935 8.79029 11.4415 8.60505 11.0009 8.16447C10.5604 7.7239 10.3751 7.17195 10.2895 6.53532C10.2076 5.92627 10.2077 5.15483 10.2077 4.2108V2.3612ZM11.4577 3.00727V4.16606C11.4577 5.16582 11.459 5.85277 11.5284 6.36876C11.5953 6.86678 11.7152 7.11097 11.8848 7.28059C12.0544 7.45021 12.2986 7.57007 12.7966 7.63702C13.3126 7.7064 13.9996 7.70772 14.9993 7.70772H16.6822C16.4352 7.4681 16.1187 7.18099 15.7077 6.81107L12.4087 3.84199C12.0042 3.47796 11.7032 3.20924 11.4577 3.00727ZM8.4789 1.04104C9.63273 1.04073 10.3782 1.04053 11.0643 1.30381C11.7504 1.56709 12.302 2.0638 13.1554 2.83231C13.1849 2.85884 13.2147 2.88569 13.2449 2.91287L16.5439 5.88195C16.579 5.91356 16.6137 5.94477 16.648 5.97559C17.6344 6.8628 18.2722 7.4365 18.6153 8.20686C18.9584 8.97722 18.9581 9.83511 18.9577 11.1618C18.9577 11.2079 18.9577 11.2546 18.9577 11.3018V11.7131C18.9577 13.2445 18.9577 14.4576 18.8301 15.4069C18.6987 16.3839 18.4219 17.1747 17.7983 17.7984C17.1747 18.422 16.3839 18.6988 15.4069 18.8301C14.4575 18.9578 13.2445 18.9577 11.713 18.9577H8.28567C6.75421 18.9577 5.54118 18.9578 4.59183 18.8301C3.61481 18.6988 2.82402 18.422 2.20039 17.7984C1.57675 17.1747 1.29999 16.3839 1.16863 15.4069C1.04099 14.4576 1.041 13.2445 1.04102 11.7131V8.28571C1.041 6.75424 1.04099 5.54122 1.16863 4.59187C1.29999 3.61485 1.57675 2.82406 2.20039 2.20043C2.82451 1.5763 3.61795 1.29984 4.59841 1.16862C5.55171 1.04103 6.77077 1.04104 8.31061 1.04106L8.35751 1.04106C8.39847 1.04106 8.43893 1.04105 8.4789 1.04104Z" fill="url(#paint2_linear_7_34851)"/>
<defs>
<linearGradient id="paint0_linear_7_34851" x1="14.4786" y1="1.04102" x2="5.852" y2="18.9577" gradientUnits="userSpaceOnUse">
<stop stop-color="#00E1E1"/>
<stop offset="1" stop-color="#24BABB"/>
</linearGradient>
<linearGradient id="paint1_linear_7_34851" x1="14.4786" y1="1.04102" x2="5.852" y2="18.9577" gradientUnits="userSpaceOnUse">
<stop stop-color="#00E1E1"/>
<stop offset="1" stop-color="#24BABB"/>
</linearGradient>
<linearGradient id="paint2_linear_7_34851" x1="14.4786" y1="1.04102" x2="5.852" y2="18.9577" gradientUnits="userSpaceOnUse">
<stop stop-color="#00E1E1"/>
<stop offset="1" stop-color="#24BABB"/>
</linearGradient>
</defs>
</svg>
