<svg width="20" height="20" viewBox="0 0 20 20" fill="none" xmlns="http://www.w3.org/2000/svg">
<path fill-rule="evenodd" clip-rule="evenodd" d="M13.0668 4.45614C11.7095 4.45614 10.6048 5.55264 10.6048 6.91062C10.6048 8.26861 11.7095 9.36511 13.0668 9.36511C14.4241 9.36511 15.5288 8.26861 15.5288 6.91062C15.5288 5.55264 14.4241 4.45614 13.0668 4.45614ZM11.8548 6.91062C11.8548 6.24781 12.395 5.70614 13.0668 5.70614C13.7385 5.70614 14.2788 6.24781 14.2788 6.91062C14.2788 7.57343 13.7385 8.11511 13.0668 8.11511C12.395 8.11511 11.8548 7.57343 11.8548 6.91062Z" fill="url(#paint0_linear_7_34872)"/>
<path fill-rule="evenodd" clip-rule="evenodd" d="M7.941 17.398C8.2185 17.0111 8.30782 16.6184 8.3012 16.2688C8.62801 16.3649 8.95136 16.3771 9.26107 16.3183C9.90143 16.1969 10.3753 15.7921 10.6266 15.4582L10.631 15.4524L10.6353 15.4465C11.0729 14.8363 11.072 14.2112 10.9649 13.763C10.9124 13.5434 10.8344 13.3627 10.7697 13.2365C10.7371 13.1728 10.7069 13.121 10.6833 13.0831C10.6771 13.0731 10.6712 13.064 10.666 13.0558C10.592 12.9178 10.5086 12.8093 10.4384 12.7274L10.4459 12.7199L10.8327 12.3347C11.1508 12.4868 11.4957 12.5826 11.7979 12.6451C12.286 12.7462 12.7636 12.7801 13.0666 12.7801C16.3177 12.7801 18.9576 10.1546 18.9576 6.91054C18.9576 3.66648 16.3177 1.04102 13.0666 1.04102C9.81548 1.04102 7.17555 3.66648 7.17555 6.91054C7.17555 7.67477 7.3495 8.32925 7.52092 8.79018C7.56456 8.90753 7.60836 9.01321 7.64964 9.10594L1.60361 15.1273C1.38993 15.3401 1.13926 15.7102 1.06349 16.1736C0.981326 16.6763 1.11627 17.2351 1.60361 17.7205L2.33841 18.4523C2.34973 18.4636 2.36149 18.4744 2.37365 18.4848C2.58589 18.666 2.94238 18.8754 3.37078 18.9387C3.83028 19.0066 4.36208 18.9009 4.81251 18.4523L5.28462 17.9821C5.72871 18.2368 6.19813 18.2948 6.63219 18.2116C7.19516 18.1038 7.6634 17.7669 7.93238 17.4097L7.93676 17.4039L7.941 17.398ZM8.42555 6.91054C8.42555 4.36166 10.501 2.29102 13.0666 2.29102C15.6322 2.29102 17.7076 4.36166 17.7076 6.91054C17.7076 9.45943 15.6322 11.5301 13.0666 11.5301C12.8389 11.5301 12.447 11.503 12.0513 11.4211C11.6372 11.3354 11.3121 11.208 11.1389 11.0643C10.8909 10.8585 10.5271 10.875 10.2987 11.1024L9.56388 11.8342C9.39576 12.0017 9.23415 12.1914 9.14888 12.4105C9.0409 12.6878 9.07531 12.9546 9.19886 13.1761C9.27211 13.3074 9.39006 13.4329 9.43918 13.4851L9.45566 13.5028C9.51376 13.5669 9.54559 13.6089 9.56882 13.6552L9.59086 13.6991L9.61602 13.7341L9.62168 13.743C9.62922 13.7551 9.64205 13.7768 9.65723 13.8064C9.68824 13.867 9.7251 13.9531 9.74913 14.0537C9.79467 14.2441 9.79418 14.4707 9.62383 14.7119C9.50663 14.8647 9.28471 15.0416 9.0281 15.0902C8.81347 15.1309 8.46357 15.1044 7.99662 14.6394C7.75276 14.3965 7.35842 14.3965 7.11455 14.6394L6.86962 14.8833C6.63891 15.1131 6.62344 15.4812 6.83313 15.7294C6.8343 15.7309 6.83751 15.7349 6.84235 15.7413C6.85238 15.7546 6.86884 15.7773 6.88835 15.8081C6.92838 15.8711 6.97542 15.9583 7.00883 16.0582C7.0718 16.2463 7.0817 16.4472 6.92968 16.6632C6.82971 16.7926 6.62687 16.9399 6.39706 16.984C6.20177 17.0214 5.95172 16.9936 5.66977 16.7128C5.4259 16.47 5.03157 16.47 4.7877 16.7128L3.93043 17.5666C3.79303 17.7034 3.67168 17.7196 3.55356 17.7022C3.41376 17.6815 3.27712 17.6071 3.19999 17.5462L2.48568 16.8348C2.28721 16.6371 2.27928 16.4845 2.29712 16.3753C2.32137 16.2269 2.41361 16.0847 2.48568 16.013L8.8559 9.66876C9.0616 9.46391 9.09807 9.14394 8.94375 8.89805L8.94192 8.89502C8.93965 8.89123 8.93532 8.88393 8.92922 8.87326C8.91701 8.8519 8.8978 8.81718 8.87385 8.77027C8.82585 8.67626 8.7595 8.53457 8.69252 8.35447C8.55777 7.99214 8.42555 7.48795 8.42555 6.91054ZM6.83313 15.7294C6.83428 15.7308 6.83543 15.7321 6.83659 15.7335L6.83563 15.7324L6.83313 15.7294Z" fill="url(#paint1_linear_7_34872)"/>
<defs>
<linearGradient id="paint0_linear_7_34872" x1="14.4785" y1="1.04102" x2="5.85204" y2="18.9576" gradientUnits="userSpaceOnUse">
<stop stop-color="#00E1E1"/>
<stop offset="1" stop-color="#24BABB"/>
</linearGradient>
<linearGradient id="paint1_linear_7_34872" x1="14.4785" y1="1.04102" x2="5.85204" y2="18.9576" gradientUnits="userSpaceOnUse">
<stop stop-color="#00E1E1"/>
<stop offset="1" stop-color="#24BABB"/>
</linearGradient>
</defs>
</svg>
