<svg width="20" height="20" viewBox="0 0 20 20" fill="none" xmlns="http://www.w3.org/2000/svg">
<path fill-rule="evenodd" clip-rule="evenodd" d="M7.70833 7.49935C7.70833 6.2337 8.73435 5.20768 10 5.20768C11.2657 5.20768 12.2917 6.2337 12.2917 7.49935C12.2917 8.765 11.2657 9.79102 10 9.79102C8.73435 9.79102 7.70833 8.765 7.70833 7.49935ZM10 6.45768C9.4247 6.45768 8.95833 6.92405 8.95833 7.49935C8.95833 8.07465 9.4247 8.54102 10 8.54102C10.5753 8.54102 11.0417 8.07465 11.0417 7.49935C11.0417 6.92405 10.5753 6.45768 10 6.45768Z" fill="url(#paint0_linear_7_34864)"/>
<path fill-rule="evenodd" clip-rule="evenodd" d="M10 10.2077C9.00354 10.2077 8.07051 10.4083 7.36347 10.7618C6.69381 11.0966 6.04167 11.6748 6.04167 12.4993L6.04156 12.5514C6.04028 12.9767 6.03813 13.6928 6.71686 14.1841C7.03182 14.4121 7.44741 14.5575 7.96224 14.6502C8.48184 14.7436 9.14768 14.791 10 14.791C10.8523 14.791 11.5182 14.7436 12.0378 14.6502C12.5526 14.5575 12.9682 14.4121 13.2831 14.1841C13.9619 13.6928 13.9597 12.9767 13.9584 12.5514L13.9583 12.4993C13.9583 11.6748 13.3062 11.0966 12.6365 10.7618C11.9295 10.4083 10.9965 10.2077 10 10.2077ZM7.29167 12.4993C7.29167 12.4034 7.38571 12.1482 7.92249 11.8799C8.42188 11.6302 9.15551 11.4577 10 11.4577C10.8445 11.4577 11.5781 11.6302 12.0775 11.8799C12.6143 12.1482 12.7083 12.4034 12.7083 12.4993C12.7083 13.0031 12.6763 13.0803 12.5502 13.1716C12.4485 13.2452 12.2391 13.3439 11.8164 13.4199C11.3985 13.4951 10.8143 13.541 10 13.541C9.18566 13.541 8.6015 13.4951 8.18359 13.4199C7.76092 13.3439 7.55151 13.2452 7.44981 13.1716C7.32374 13.0803 7.29167 13.0031 7.29167 12.4993Z" fill="url(#paint1_linear_7_34864)"/>
<path fill-rule="evenodd" clip-rule="evenodd" d="M7.26949 1.70861C8.47277 1.2965 9.21873 1.04102 10 1.04102C10.7813 1.04102 11.5272 1.2965 12.7305 1.70861L13.3367 1.91613C14.5711 2.33868 15.5238 2.66478 16.2058 2.94184C16.5493 3.0814 16.8447 3.21657 17.0825 3.35469C17.3114 3.4876 17.541 3.65338 17.697 3.87563C17.8512 4.09532 17.9309 4.36539 17.981 4.62537C18.0331 4.89565 18.0645 5.21988 18.0847 5.59215C18.125 6.33135 18.125 7.34402 18.125 8.65753V9.99215C18.125 15.0764 14.285 17.5139 12.0014 18.5115L11.9788 18.5214C11.6956 18.6451 11.4295 18.7614 11.1237 18.8397C10.8008 18.9223 10.4577 18.9577 10 18.9577C9.54228 18.9577 9.19922 18.9223 8.87634 18.8397C8.57051 18.7614 8.30436 18.6451 8.02119 18.5213L7.99861 18.5115C5.71502 17.5139 1.875 15.0764 1.875 9.99215V8.6576C1.875 7.34417 1.875 6.33132 1.91525 5.59215C1.93552 5.21988 1.96693 4.89565 2.01901 4.62537C2.06911 4.36539 2.14884 4.09532 2.30303 3.87563C2.45902 3.65338 2.68862 3.4876 2.91748 3.35469C3.15531 3.21657 3.45065 3.0814 3.79419 2.94184C4.47617 2.66479 5.42885 2.33868 6.66329 1.91613L7.26949 1.70861ZM10 2.29102C9.45188 2.29102 8.91262 2.46738 7.56718 2.92793L7.08984 3.09133C5.82934 3.5228 4.91008 3.83772 4.26466 4.09992C3.9425 4.2308 3.70908 4.34047 3.54524 4.43562C3.46435 4.4826 3.40861 4.52136 3.37139 4.55162C3.33983 4.57728 3.3278 4.5918 3.32608 4.59392C3.32446 4.59654 3.31411 4.61385 3.29952 4.6548C3.28287 4.70155 3.26441 4.76859 3.24643 4.8619C3.21003 5.05076 3.18245 5.31019 3.1634 5.66011C3.12523 6.36111 3.125 7.33963 3.125 8.67989V9.99215C3.125 14.3047 6.34991 16.4272 8.49899 17.366C8.80856 17.5012 8.98732 17.5778 9.18633 17.6287C9.3764 17.6774 9.60833 17.7077 10 17.7077C10.3917 17.7077 10.6236 17.6774 10.8137 17.6287C11.0127 17.5778 11.1914 17.5012 11.501 17.366C13.6501 16.4272 16.875 14.3047 16.875 9.99215V8.67989C16.875 7.33963 16.8748 6.36111 16.8366 5.66011C16.8175 5.31019 16.79 5.05076 16.7536 4.8619C16.7356 4.76859 16.7171 4.70155 16.7005 4.6548C16.6859 4.61382 16.6755 4.59651 16.6739 4.59392C16.6722 4.59178 16.6601 4.57726 16.6286 4.55162C16.5914 4.52136 16.5356 4.4826 16.4548 4.43562C16.2909 4.34047 16.0575 4.2308 15.7353 4.09992C15.0899 3.83772 14.1707 3.5228 12.9102 3.09133L12.4328 2.92793C11.0874 2.46738 10.5481 2.29102 10 2.29102Z" fill="url(#paint2_linear_7_34864)"/>
<defs>
<linearGradient id="paint0_linear_7_34864" x1="14.0625" y1="1.04102" x2="4.92214" y2="18.2589" gradientUnits="userSpaceOnUse">
<stop stop-color="#00E1E1"/>
<stop offset="1" stop-color="#24BABB"/>
</linearGradient>
<linearGradient id="paint1_linear_7_34864" x1="14.0625" y1="1.04102" x2="4.92214" y2="18.2589" gradientUnits="userSpaceOnUse">
<stop stop-color="#00E1E1"/>
<stop offset="1" stop-color="#24BABB"/>
</linearGradient>
<linearGradient id="paint2_linear_7_34864" x1="14.0625" y1="1.04102" x2="4.92214" y2="18.2589" gradientUnits="userSpaceOnUse">
<stop stop-color="#00E1E1"/>
<stop offset="1" stop-color="#24BABB"/>
</linearGradient>
</defs>
</svg>
